<svg xmlns="http://www.w3.org/2000/svg" width="84.42" height="24.559" viewBox="0 0 84.42 24.559"><defs><style>.a,.b,.c{fill:#505050;}.b{opacity:0.8;}.c{opacity:0.5;}</style></defs><path class="a" d="M4.336,73.235a.217.217,0,0,1-.243.194.237.237,0,0,1-.194-.243.217.217,0,0,1,.243-.194.22.22,0,0,1,.194.243Z" transform="translate(-3.681 -69.397)"/><g transform="translate(26.534 5.984)"><path class="a" d="M112.5,80.095,116.958,68.9h1.575l4.386,11.195H121.2l-1.211-3.1h-4.749L114,80.095Zm3.174-4.289h3.8l-1.89-4.82Z" transform="translate(-112.5 -68.596)"/><path class="a" d="M171.386,78.891a10.077,10.077,0,0,1-3.562.582,5.978,5.978,0,0,1-3.174-.727,4.433,4.433,0,0,1-1.745-2.108,7.388,7.388,0,0,1-.606-3.053,6.541,6.541,0,0,1,1.357-4.24A5.125,5.125,0,0,1,167.8,67.7a13.411,13.411,0,0,1,3.538.509v1.478a17.523,17.523,0,0,0-2.35-.679,7.182,7.182,0,0,0-1.211-.1,3.172,3.172,0,0,0-2.908,1.381,5.917,5.917,0,0,0-.9,3.319,6.3,6.3,0,0,0,.388,2.254,3.832,3.832,0,0,0,1.284,1.745,3.887,3.887,0,0,0,2.424.679,6.447,6.447,0,0,0,.727-.048,5.128,5.128,0,0,0,.993-.243V74.359h1.6V78.89Z" transform="translate(-150.232 -67.683)"/><path class="a" d="M214.2,80.095V68.9h6.276v1.185H215.8v3.586h3.926v1.163H215.8v4.047h5.016v1.185H214.2Z" transform="translate(-189.557 -68.596)"/><path class="a" d="M250.374,80.095V70.085H246.4V68.9h9.547v1.185h-3.974V80.095Z" transform="translate(-213.955 -68.596)"/><path class="a" d="M295.2,80.095V68.9h1.6V80.095Z" transform="translate(-250.93 -68.596)"/><path class="a" d="M322.961,78.7a8.252,8.252,0,0,1-1.236.533,5.707,5.707,0,0,1-1.115.243,10.091,10.091,0,0,1-1.26.073,4.937,4.937,0,0,1-4.144-1.672,6.61,6.61,0,0,1-1.309-4.192,6.541,6.541,0,0,1,1.357-4.24,5.112,5.112,0,0,1,4.167-1.648,15.73,15.73,0,0,1,3.513.484v1.5a15.094,15.094,0,0,0-2.326-.679,7.183,7.183,0,0,0-1.211-.1,3.24,3.24,0,0,0-2.908,1.357,6.084,6.084,0,0,0-.9,3.344,5.066,5.066,0,0,0,1.042,3.344,3.613,3.613,0,0,0,2.956,1.284,5.289,5.289,0,0,0,1.066-.1,5.581,5.581,0,0,0,1.042-.291,8.185,8.185,0,0,0,1.284-.606V78.7Z" transform="translate(-265.098 -67.759)"/></g><path class="a" d="M31.933,113.159a.439.439,0,0,1-.291-.533.42.42,0,0,1,.533-.291.439.439,0,0,1,.291.533.42.42,0,0,1-.533.291Z" transform="translate(-24.686 -99.195)"/><path class="a" d="M27.433,111.959a.439.439,0,0,1-.291-.533.42.42,0,0,1,.533-.291.439.439,0,0,1,.291.533A.461.461,0,0,1,27.433,111.959Z" transform="translate(-21.277 -98.286)"/><path class="a" d="M36.733,113.259a.439.439,0,0,1-.291-.533.42.42,0,0,1,.533-.291.43.43,0,1,1-.243.824Z" transform="translate(-28.323 -99.271)"/><path class="a" d="M41.276,112.339a.33.33,0,0,1-.243-.436.347.347,0,0,1,.436-.243.361.361,0,0,1,.266.436A.372.372,0,0,1,41.276,112.339Z" transform="translate(-31.801 -98.69)"/><path class="a" d="M24.176,109.839a.33.33,0,0,1-.243-.436.347.347,0,0,1,.436-.243.33.33,0,0,1,.243.436.347.347,0,0,1-.436.243Z" transform="translate(-18.844 -96.797)"/><path class="a" d="M21.806,107.7a.316.316,0,0,1-.218-.339.3.3,0,1,1,.218.339Z" transform="translate(-17.081 -95.283)"/><path class="a" d="M44.514,110.8a.277.277,0,1,1,.363-.194.282.282,0,0,1-.363.194Z" transform="translate(-34.287 -97.632)"/><path class="a" d="M20.5,105.245a.217.217,0,0,1-.145-.291.249.249,0,0,1,.291-.17.217.217,0,0,1,.145.291.223.223,0,0,1-.291.17Z" transform="translate(-16.135 -93.487)"/><circle class="a" cx="0.218" cy="0.218" r="0.218" transform="translate(10.736 12.122)"/><path class="a" d="M19.731,103.116a.215.215,0,0,1-.145-.243.181.181,0,0,1,.243-.121.215.215,0,0,1,.145.243.227.227,0,0,1-.243.121Z" transform="translate(-15.562 -91.939)"/><path class="a" d="M19.3,101.071a.158.158,0,0,1-.121-.194.165.165,0,0,1,.194-.1.158.158,0,0,1,.121.194A.165.165,0,0,1,19.3,101.071Z" transform="translate(-15.254 -90.452)"/><path class="a" d="M48.8,106.071a.158.158,0,0,1-.121-.194.165.165,0,0,1,.194-.1.158.158,0,0,1,.121.194A.165.165,0,0,1,48.8,106.071Z" transform="translate(-37.606 -94.241)"/><path class="b" d="M5.163,105.206a.582.582,0,1,1-.582-.606A.632.632,0,0,1,5.163,105.206Z" transform="translate(-3.756 -93.351)"/><path class="b" d="M4.163,98.006a.582.582,0,1,1-.582-.606A.6.6,0,0,1,4.163,98.006Z" transform="translate(-2.999 -87.895)"/><path class="b" d="M8.263,111.406a.582.582,0,1,1-.582-.606.61.61,0,0,1,.582.606Z" transform="translate(-6.105 -98.049)"/><path class="b" d="M12.218,116.609a.5.5,0,0,1-.509.509.512.512,0,0,1-.509-.509.5.5,0,0,1,.509-.509A.512.512,0,0,1,12.218,116.609Z" transform="translate(-9.212 -102.064)"/><path class="b" d="M6.218,91.709a.5.5,0,0,1-.509.509.512.512,0,0,1-.509-.509.5.5,0,0,1,.509-.509.529.529,0,0,1,.509.509Z" transform="translate(-4.666 -83.197)"/><path class="b" d="M16.22,120.661a.446.446,0,0,1-.461.461.474.474,0,0,1-.461-.461.446.446,0,0,1,.461-.461.46.46,0,0,1,.461.461Z" transform="translate(-12.318 -105.17)"/><path class="b" d="M8.22,86.461a.446.446,0,0,1-.461.461.474.474,0,0,1-.461-.461A.446.446,0,0,1,7.76,86,.474.474,0,0,1,8.22,86.461Z" transform="translate(-6.256 -79.258)"/><path class="b" d="M21.824,123.006a.409.409,0,0,1-.412.412.424.424,0,0,1-.412-.412.409.409,0,0,1,.412-.412.4.4,0,0,1,.412.412Z" transform="translate(-16.637 -106.983)"/><path class="b" d="M11.224,82.912a.409.409,0,0,1-.412.412.424.424,0,0,1-.412-.412.412.412,0,1,1,.824,0Z" transform="translate(-8.606 -76.606)"/><path class="b" d="M27.281,124.516a.292.292,0,1,1-.291-.316.3.3,0,0,1,.291.316Z" transform="translate(-20.956 -108.202)"/><path class="b" d="M13.881,79.416a.292.292,0,1,1-.291-.316.36.36,0,0,1,.291.316Z" transform="translate(-10.803 -74.029)"/><path class="b" d="M31.584,124.766a.266.266,0,0,1-.243.266.249.249,0,0,1-.243-.266.243.243,0,1,1,.484,0Z" transform="translate(-24.289 -108.429)"/><path class="b" d="M16.736,77.718a.217.217,0,1,1-.064-.154A.218.218,0,0,1,16.736,77.718Z" transform="translate(-13.077 -72.817)"/><path class="b" d="M19.236,76.106a.218.218,0,1,1-.218-.218C19.139,75.864,19.236,75.961,19.236,76.106Z" transform="translate(-14.97 -71.593)"/><path class="c" d="M19.387,112.488a.5.5,0,0,1-.145.679.488.488,0,0,1-.679-.17.5.5,0,0,1,.145-.679.535.535,0,0,1,.679.17Z" transform="translate(-14.733 -99.154)"/><path class="c" d="M15.412,107.834a.495.495,0,1,1-.7-.17.506.506,0,0,1,.7.17Z" transform="translate(-11.703 -95.617)"/><path class="c" d="M24.287,115.535a.5.5,0,0,1-.145.679.488.488,0,0,1-.679-.17.5.5,0,0,1,.145-.679.488.488,0,0,1,.679.17Z" transform="translate(-18.446 -101.452)"/><path class="c" d="M29.023,117.559a.41.41,0,0,1-.145.582A.431.431,0,0,1,28.3,118a.41.41,0,0,1,.145-.582.42.42,0,0,1,.582.145Z" transform="translate(-22.117 -103.015)"/><path class="c" d="M13.9,103.793a.424.424,0,0,1-.121.582.431.431,0,0,1-.582-.145.41.41,0,0,1,.145-.582A.425.425,0,0,1,13.9,103.793Z" transform="translate(-10.675 -92.593)"/><path class="c" d="M33.667,118.766a.386.386,0,1,1-.533-.121A.406.406,0,0,1,33.667,118.766Z" transform="translate(-25.693 -103.954)"/><path class="c" d="M12.967,99.366a.4.4,0,0,1-.121.533.419.419,0,0,1-.533-.121.4.4,0,0,1,.121-.533.412.412,0,0,1,.533.121Z" transform="translate(-10.01 -89.256)"/><path class="c" d="M39.328,118.343a.337.337,0,1,1-.582.339.358.358,0,0,1,.121-.484.362.362,0,0,1,.461.145Z" transform="translate(-30.046 -103.629)"/><path class="c" d="M13.328,95.187a.358.358,0,0,1-.121.484.337.337,0,1,1-.339-.582.309.309,0,0,1,.46.1Z" transform="translate(-10.347 -86.094)"/><path class="c" d="M42.979,117.09a.237.237,0,0,1-.073.339.245.245,0,0,1-.339-.1.237.237,0,0,1,.073-.339.245.245,0,0,1,.339.1Z" transform="translate(-32.95 -102.715)"/><path class="c" d="M14.879,92.19a.237.237,0,0,1-.073.339.245.245,0,0,1-.339-.1.237.237,0,0,1,.073-.339.245.245,0,0,1,.339.1Z" transform="translate(-11.659 -83.849)"/><path class="c" d="M16.416,90.212a.182.182,0,0,1-.048.243.173.173,0,0,1-.243-.073.182.182,0,0,1,.048-.243A.188.188,0,0,1,16.416,90.212Z" transform="translate(-12.922 -82.379)"/><path class="c" d="M18.216,88.2a.182.182,0,0,1-.048.243.173.173,0,0,1-.243-.073.182.182,0,0,1,.048-.243.173.173,0,0,1,.243.073Z" transform="translate(-14.286 -80.849)"/><path class="a" d="M75.182,102.151a1.062,1.062,0,0,1-1.163.948,1.045,1.045,0,0,1-.948-1.163,1.062,1.062,0,0,1,1.163-.948,1.045,1.045,0,0,1,.948,1.163Z" transform="translate(-56.087 -90.611)"/><path class="a" d="M74.082,113.451a1.062,1.062,0,0,1-1.163.948,1.045,1.045,0,0,1-.948-1.163,1.062,1.062,0,0,1,1.163-.948,1.094,1.094,0,0,1,.948,1.163Z" transform="translate(-55.254 -99.173)"/><path class="a" d="M73.382,89.451a1.062,1.062,0,0,1-1.163.948,1.045,1.045,0,0,1-.948-1.163,1.062,1.062,0,0,1,1.163-.948A1.076,1.076,0,0,1,73.382,89.451Z" transform="translate(-54.724 -80.988)"/><path class="a" d="M68.077,77.389a.971.971,0,0,1-1.041.894.986.986,0,0,1-.848-1.09.95.95,0,1,1,1.89.194Z" transform="translate(-50.872 -71.907)"/><path class="a" d="M72.382,123.255a.853.853,0,1,1-.751-.97.869.869,0,0,1,.751.97Z" transform="translate(-54.281 -106.748)"/><path class="a" d="M70.739,130.987a.685.685,0,1,1-.129-.532A.684.684,0,0,1,70.739,130.987Z" transform="translate(-53.293 -112.732)"/><path class="a" d="M53.439,62.987a.684.684,0,1,1-.606-.8.711.711,0,0,1,.606.8Z" transform="translate(-40.184 -61.209)"/><path class="a" d="M68.108,137.185a.529.529,0,0,1-.606.484.565.565,0,0,1-.509-.606.53.53,0,0,1,.606-.484.579.579,0,0,1,.509.606Z" transform="translate(-51.485 -117.576)"/><path class="a" d="M40.108,59.387a.529.529,0,0,1-.606.484.565.565,0,0,1-.509-.606.546.546,0,0,1,.606-.484.536.536,0,0,1,.509.606Z" transform="translate(-30.27 -58.63)"/><path class="a" d="M66.013,142.727a.48.48,0,0,1-.509.436.474.474,0,0,1-.412-.533.48.48,0,0,1,.509-.436A.488.488,0,0,1,66.013,142.727Z" transform="translate(-50.044 -121.834)"/><path class="a" d="M63.167,147.129a.4.4,0,0,1-.436.363.386.386,0,0,1-.339-.436.4.4,0,0,1,.436-.363.386.386,0,0,1,.339.436Z" transform="translate(-47.998 -125.242)"/><path class="a" d="M16.467,63.029a.4.4,0,0,1-.436.363.386.386,0,0,1-.339-.436.4.4,0,0,1,.436-.363.386.386,0,0,1,.339.436Z" transform="translate(-12.613 -61.521)"/><ellipse class="c" cx="0.582" cy="0.606" rx="0.582" ry="0.606" transform="translate(14.855 11.831)"/><path class="c" d="M64.82,114.361a.46.46,0,0,1-.461.461.474.474,0,0,1-.461-.461.446.446,0,0,1,.461-.461.46.46,0,0,1,.461.461Z" transform="translate(-49.142 -100.397)"/><path class="a" d="M27.556,59.226a.559.559,0,0,1-.679.388.527.527,0,0,1-.363-.679.559.559,0,0,1,.679-.388.527.527,0,0,1,.363.679Z" transform="translate(-20.795 -58.444)"/><path class="a" d="M60.267,151.029a.4.4,0,0,1-.436.363.386.386,0,0,1-.339-.436.4.4,0,0,1,.436-.363.376.376,0,0,1,.339.436Z" transform="translate(-45.8 -128.197)"/><path class="a" d="M56.981,154.93a.292.292,0,0,1-.316.266.316.316,0,0,1-.266-.339.292.292,0,0,1,.316-.266.3.3,0,0,1,.266.339Z" transform="translate(-43.459 -131.226)"/><path class="a" d="M53.836,157.935a.205.205,0,0,1-.243.194.237.237,0,0,1-.194-.243.217.217,0,0,1,.243-.194.205.205,0,0,1,.194.243Z" transform="translate(-41.186 -133.573)"/><path class="a" d="M59.677,68.177a.971.971,0,0,1-1.041.894.986.986,0,0,1-.848-1.09.971.971,0,0,1,1.042-.9.986.986,0,0,1,.847,1.093Z" transform="translate(-44.507 -64.924)"/><path class="a" d="M46.439,60.259a.683.683,0,1,1-.606-.775.675.675,0,0,1,.606.775Z" transform="translate(-34.881 -59.163)"/><path class="a" d="M33.908,58.785a.529.529,0,0,1-.606.484.553.553,0,0,1-.509-.606.529.529,0,0,1,.606-.484.536.536,0,0,1,.509.606Z" transform="translate(-25.572 -58.173)"/><path class="a" d="M21.156,60.626a.559.559,0,0,1-.679.388.527.527,0,0,1-.363-.679.559.559,0,0,1,.679-.388.537.537,0,0,1,.363.679Z" transform="translate(-15.945 -59.504)"/><path class="c" d="M64.053,92.975a.729.729,0,1,1-.727-.775.741.741,0,0,1,.727.775Z" transform="translate(-48.157 -83.955)"/><path class="c" d="M65.056,100.527a.68.68,0,1,1-.679-.727.7.7,0,0,1,.679.727Z" transform="translate(-48.99 -89.714)"/><path class="c" d="M50.063,72.206a.582.582,0,1,1-.582-.606A.6.6,0,0,1,50.063,72.206Z" transform="translate(-37.777 -68.347)"/><path class="c" d="M63.92,119.554a.446.446,0,0,1-.461.461.474.474,0,0,1-.461-.461.446.446,0,0,1,.461-.461.432.432,0,0,1,.461.461Z" transform="translate(-48.46 -104.331)"/><path class="c" d="M62.724,124.212a.409.409,0,0,1-.412.412.424.424,0,0,1-.412-.412.409.409,0,0,1,.412-.412.424.424,0,0,1,.412.412Z" transform="translate(-47.627 -107.898)"/><path class="c" d="M61.132,129.116a.316.316,0,1,1-.316-.316.306.306,0,0,1,.316.316Z" transform="translate(-46.566 -111.687)"/><path class="c" d="M54.653,76.975a.729.729,0,1,1-.727-.775.756.756,0,0,1,.727.775Z" transform="translate(-41.034 -71.832)"/><path class="c" d="M59.691,83.393a.974.974,0,0,1-.942.994,1,1,0,1,1,.942-.994Z" transform="translate(-44.521 -76.53)"/><path class="c" d="M45.22,69.361a.446.446,0,0,1-.461.461.474.474,0,0,1-.461-.461.446.446,0,0,1,.461-.461.46.46,0,0,1,.461.461Z" transform="translate(-34.291 -66.301)"/><path class="c" d="M40.724,67.705a.409.409,0,0,1-.412.412.424.424,0,0,1-.412-.412.409.409,0,0,1,.412-.412.382.382,0,0,1,.412.412Z" transform="translate(-30.958 -65.082)"/><path class="c" d="M36.832,67.116a.316.316,0,1,1-.316-.316.321.321,0,0,1,.316.316Z" transform="translate(-28.154 -64.71)"/><path class="c" d="M32.434,67.066a.266.266,0,1,1-.266-.266.254.254,0,0,1,.266.266Z" transform="translate(-24.896 -64.71)"/><path class="a" d="M11.267,65.629a.4.4,0,0,1-.436.363.386.386,0,0,1-.339-.436.4.4,0,0,1,.436-.363.386.386,0,0,1,.339.436Z" transform="translate(-8.674 -63.49)"/><path class="a" d="M7.481,68.93a.292.292,0,0,1-.316.266.316.316,0,0,1-.266-.339.292.292,0,0,1,.316-.266.337.337,0,0,1,.266.339Z" transform="translate(-5.953 -66.064)"/><path class="c" d="M59.588,132.594a.191.191,0,0,1-.194.194.194.194,0,1,1,.194-.194Z" transform="translate(-45.581 -114.414)"/><path class="c" d="M28.988,68.294a.191.191,0,0,1-.194.194.209.209,0,0,1-.194-.194.191.191,0,0,1,.194-.194.209.209,0,0,1,.194.194Z" transform="translate(-22.396 -65.695)"/><path class="b" d="M34.954,124.689a.263.263,0,0,1-.17-.291.217.217,0,0,1,.291-.145.263.263,0,0,1,.17.291.209.209,0,0,1-.291.145Z" transform="translate(-27.079 -108.229)"/><path class="b" d="M38.242,124.021a.178.178,0,1,1,.243-.121.213.213,0,0,1-.243.121Z" transform="translate(-29.59 -107.804)"/><path class="b" d="M56.24,104.363a.494.494,0,1,1-.582-.388A.524.524,0,0,1,56.24,104.363Z" transform="translate(-42.6 -92.871)"/><path class="b" d="M55.311,97.454a.606.606,0,0,1-.606.632.627.627,0,0,1-.605-.654.606.606,0,0,1,.606-.632.6.6,0,0,1,.605.654Z" transform="translate(-41.717 -87.441)"/><path class="b" d="M45.118,80.233a.512.512,0,0,1-.509.509.518.518,0,0,1-.509-.533.512.512,0,0,1,.509-.509.533.533,0,0,1,.509.533Z" transform="translate(-34.14 -74.484)"/><path class="b" d="M56.32,110.114a.432.432,0,1,1-.509-.339.469.469,0,0,1,.509.339Z" transform="translate(-42.749 -97.265)"/><circle class="b" cx="0.315" cy="0.315" r="0.315" transform="translate(12.601 13.842)"/><path class="b" d="M54.322,119.453a.223.223,0,1,1-.1-.14.224.224,0,0,1,.1.14Z" transform="translate(-41.55 -104.474)"/><path class="b" d="M49.031,84.906a.621.621,0,0,1-.632.606.6.6,0,0,1-.606-.606.621.621,0,0,1,.632-.606.6.6,0,0,1,.606.606Z" transform="translate(-36.939 -77.97)"/><path class="b" d="M52.928,90.127a.7.7,0,0,1-.679.7A.671.671,0,0,1,51.6,90.1a.7.7,0,0,1,.679-.7.717.717,0,0,1,.654.727Z" transform="translate(-39.818 -81.834)"/><path class="b" d="M40.627,78.188a.357.357,0,0,1-.363.363.378.378,0,0,1-.363-.388.357.357,0,0,1,.363-.363A.414.414,0,0,1,40.627,78.188Z" transform="translate(-30.958 -73.044)"/><path class="b" d="M36.132,77.016a.316.316,0,1,1-.316-.316A.321.321,0,0,1,36.132,77.016Z" transform="translate(-27.624 -72.211)"/><path class="b" d="M32.136,77.035c0,.121-.1.243-.218.218a.224.224,0,0,1-.218-.243c0-.121.1-.243.218-.218a.224.224,0,0,1,.218.243Z" transform="translate(-24.744 -72.278)"/></svg>