<svg xmlns="http://www.w3.org/2000/svg" width="32.25" height="40.69" viewBox="0 0 32.25 40.69"><defs><style>.a{fill:#091f92;}</style></defs><path class="a" d="M184.9,465.044a6.147,6.147,0,0,0,11.252,0Z" transform="translate(-174.405 -428.025)"/><path class="a" d="M201,3.888a13.826,13.826,0,0,1,4.721.827V4.533A4.538,4.538,0,0,0,201.185,0h-.376a4.538,4.538,0,0,0-4.533,4.533v.179A13.853,13.853,0,0,1,201,3.888Z" transform="translate(-184.873 0)"/><path class="a" d="M84.038,107.191h-29.8a1.214,1.214,0,0,1-1.2-.932,1.158,1.158,0,0,1,.638-1.318,6.323,6.323,0,0,0,1.924-2.616c1.658-3.5,2.006-8.438,2.006-11.962a11.528,11.528,0,0,1,23.056-.046c0,.015,0,.03,0,.046,0,3.523.348,8.458,2.006,11.962a6.321,6.321,0,0,0,1.924,2.616,1.158,1.158,0,0,1,.638,1.318A1.215,1.215,0,0,1,84.038,107.191Zm.573-2.241h0Z" transform="translate(-53.013 -72.56)"/></svg>