<svg xmlns="http://www.w3.org/2000/svg" width="33.542" height="40.69" viewBox="0 0 33.542 40.69"><defs><style>.a{fill:#091f92;}</style></defs><g transform="translate(24.744 31.892)"><path class="a" d="M36.042,37.495a2.752,2.752,0,0,0-2.749,2.749v6.048l8.8-8.8Z" transform="translate(-33.293 -37.495)"/></g><g transform="translate(0)"><path class="a" d="M4.2,0V35.191a5.515,5.515,0,0,0,5.5,5.5H26.2V34.642a5.515,5.515,0,0,1,5.5-5.5h6.048V0ZM21.247,9.622h9.9v2.749h-9.9Zm-7.91,15.444L9.976,22.544l-1.1-.825,1.649-2.2,2.137,1.6,3.256-4.883L18.2,17.764Zm0-9.9L9.976,12.646l-1.1-.825,1.649-2.2,2.137,1.6,3.256-4.883L18.2,7.866Zm7.91,7.1V19.52h9.9v2.749h-9.9Z" transform="translate(-4.202)"/></g></svg>